<?xml version="1.0" encoding="UTF-8"?>
<mxfile host="app.diagrams.net" modified="2024-01-01T00:00:00.000Z" agent="draw.io" version="22.1.16" etag="draw.io-xml" type="device">
  <diagram name="VIdioma" id="vidioma-interface">
    <mxGraphModel dx="600" dy="400" grid="1" gridSize="10" guides="1" tooltips="1" connect="1" arrows="1" fold="1" page="1" pageScale="1" pageWidth="827" pageHeight="1169" math="0" shadow="0">
      <root>
        <mxCell id="0" />
        <mxCell id="1" parent="0" />
        
        <!-- Diálogo VIdioma -->
        <mxCell id="dialogo-idioma" value="" style="rounded=1;whiteSpace=wrap;html=1;fillColor=#f8f9fa;strokeColor=#dee2e6;strokeWidth=2;" vertex="1" parent="1">
          <mxGeometry x="200" y="200" width="200" height="180" as="geometry" />
        </mxCell>
        
        <!-- Título del diálogo -->
        <mxCell id="titulo-idioma" value="Selección de Idioma" style="text;html=1;strokeColor=none;fillColor=none;align=center;verticalAlign=middle;whiteSpace=wrap;rounded=0;fontSize=14;fontStyle=1;" vertex="1" parent="1">
          <mxGeometry x="200" y="170" width="200" height="30" as="geometry" />
        </mxCell>
        
        <!-- ComboBox de idiomas -->
        <mxCell id="combo-idiomas" value="" style="rounded=0;whiteSpace=wrap;html=1;fillColor=#ffffff;strokeColor=#9e9e9e;" vertex="1" parent="1">
          <mxGeometry x="220" y="220" width="123" height="25" as="geometry" />
        </mxCell>
        
        <!-- Texto del combo -->
        <mxCell id="combo-texto" value="Español ▼" style="text;html=1;strokeColor=none;fillColor=none;align=left;verticalAlign=middle;whiteSpace=wrap;rounded=0;fontSize=12;" vertex="1" parent="1">
          <mxGeometry x="225" y="220" width="90" height="25" as="geometry" />
        </mxCell>
        
        <!-- Flecha del combo -->
        <mxCell id="combo-flecha" value="▼" style="text;html=1;strokeColor=none;fillColor=none;align=center;verticalAlign=middle;whiteSpace=wrap;rounded=0;fontSize=12;" vertex="1" parent="1">
          <mxGeometry x="320" y="220" width="20" height="25" as="geometry" />
        </mxCell>
        
        <!-- Lista desplegable (oculta por defecto) -->
        <mxCell id="combo-options" value="Español&#xa;Galego&#xa;Inglés" style="rounded=0;whiteSpace=wrap;html=1;fillColor=#ffffff;strokeColor=#9e9e9e;fontSize=11;align=left;verticalAlign=top;dashed=1;dashPattern=3 3;" vertex="1" parent="1">
          <mxGeometry x="220" y="250" width="123" height="60" as="geometry" />
        </mxCell>
        
        <!-- Botón Aceptar -->
        <mxCell id="btn-aceptar" value="Aceptar" style="rounded=1;whiteSpace=wrap;html=1;fillColor=#e8f5e8;strokeColor=#4caf50;fontSize=12;" vertex="1" parent="1">
          <mxGeometry x="240" y="330" width="80" height="35" as="geometry" />
        </mxCell>
        
        <!-- Información -->
        <mxCell id="info-idioma" value="🌐 Selecciona el idioma&#xa;de la aplicación" style="rounded=1;whiteSpace=wrap;html=1;fillColor=#fff9c4;strokeColor=#f9a825;fontSize=10;align=left;verticalAlign=top;" vertex="1" parent="1">
          <mxGeometry x="440" y="220" width="130" height="60" as="geometry" />
        </mxCell>
        
      </root>
    </mxGraphModel>
  </diagram>
</mxfile>